<?xml version="1.0" encoding="UTF-8"?>
<svg width="754px" height="388px" viewBox="0 0 754 388" version="1.1" xmlns="http://www.w3.org/2000/svg" xmlns:xlink="http://www.w3.org/1999/xlink">
    <title>g12</title>
    <defs>
        <path d="M179.390662,8.80666645 C165.590663,19.3266662 147.050663,25.2719994 127.28533,25.6279994 L136.942663,76.7599981 L97.2613309,24.3693327 C74.6653315,21.1799995 50.5533321,12.909333 28.9439993,0 L0,40.4533323 C12.6146664,48.5399988 25.7293327,56.3239986 39.8213323,62.2026651 C128.107997,99.0359975 195.462662,90.0719977 253.85866,54.7306653 L179.390662,8.80666645 Z" id="path-1"></path>
        <linearGradient x1="20.2044182%" y1="46.6000755%" x2="64.5682637%" y2="51.4303021%" id="linearGradient-3">
            <stop stop-color="#FDDC04" offset="0%"></stop>
            <stop stop-color="#F68A12" offset="100%"></stop>
        </linearGradient>
        <path d="M4.11896744,3.03164893e-14 C-4.64089901,34.8598658 1.04710085,70.1038649 16.6711005,102.935864 L52.9949662,115.679864 L29.8471001,126.527864 C51.3153663,159.935863 82.7548321,189.863862 118.839098,212.963861 L147.783097,172.511862 C120.760431,156.001196 101.528432,134.147863 91.8596319,112.053197 C81.5824322,90.9438644 79.3585656,69.1065316 86.6538987,50.6905321 L4.11896744,3.03164893e-14 M91.2990986,53.5438653 C91.2272319,53.6771987 91.1553653,53.810532 91.0845653,53.9451987 C91.1548319,53.8118653 91.2272319,53.6758653 91.2990986,53.5438653 L91.2990986,53.5438653" id="path-4"></path>
        <radialGradient cx="89.2473046%" cy="89.9162863%" fx="89.2473046%" fy="89.9162863%" r="179.546916%" gradientTransform="translate(0.892473,0.899163),scale(1.000000,0.693935),translate(-0.892473,-0.899163)" id="radialGradient-6">
            <stop stop-color="#00ADEF" offset="0%"></stop>
            <stop stop-color="#176FC0" offset="85.0394%"></stop>
            <stop stop-color="#1C63B7" offset="100%"></stop>
        </radialGradient>
        <path d="M123.947997,7.57912233e-15 L121.355997,23.3999994 L94.6559976,1.12813331 C47.6401321,6.91199983 12.2639997,31.8119992 0,69.9718649 L88.9197311,124.619997 C89.4239978,123.935997 89.9281311,123.263997 90.4562644,122.591997 C100.595997,109.931997 115.535997,101.795997 133.319997,98.3159975 L133.319997,98.3159975 C115.535997,101.795997 100.595997,109.931997 90.4562644,122.591997 C89.9281311,123.263997 89.4239978,123.935997 88.9197311,124.619997 L83.5317312,121.307997 C84.6239979,119.327997 85.8239979,117.395997 87.1562645,115.523997 C97.3919976,101.147997 113.015997,91.7159977 131.879997,87.5159978 L124.307997,30.7921326 L137.734663,49.4838654 L134.099997,29.0041326 L178.271996,87 C197.975995,90.2039977 220.931994,97.6679976 241.811994,109.571997 L277.487993,59.7119985 C224.255994,20.2921328 170.267996,1.84786662 123.947997,7.57912233e-15" id="path-7"></path>
        <radialGradient cx="45.3199177%" cy="215.480661%" fx="45.3199177%" fy="215.480661%" r="212.921414%" gradientTransform="translate(0.453199,2.154807),scale(0.449101,1.000000),translate(-0.453199,-2.154807)" id="radialGradient-9">
            <stop stop-color="#00ADEF" offset="0%"></stop>
            <stop stop-color="#176FC0" offset="85.0394%"></stop>
            <stop stop-color="#1C63B7" offset="100%"></stop>
        </radialGradient>
        <path d="M381.121694,138.640316 L374.819027,138.618982 C223.000364,-16.5583473 57.0873019,21.0068518 29.8930359,115.633916 C0.265473966,218.72298 103.937301,333.280311 211.441698,371.90031 C113.557167,352.041644 -38.7428291,214.30698 9.05558308,80.7885836 C41.9973023,-11.2275741 204.303032,-38.0608801 344.529695,71.7963172 L333.963028,86.5640502 C358.169694,106.896316 374.516361,125.976583 381.121694,138.640316 Z" id="path-10"></path>
        <radialGradient cx="43.9381179%" cy="84.9798462%" fx="43.9381179%" fy="84.9798462%" r="71.3474336%" gradientTransform="translate(0.439381,0.849798),scale(0.975805,1.000000),translate(-0.439381,-0.849798)" id="radialGradient-12">
            <stop stop-color="#00ADEF" offset="0%"></stop>
            <stop stop-color="#176FC0" offset="85.0394%"></stop>
            <stop stop-color="#1C63B7" offset="100%"></stop>
        </radialGradient>
        <path d="M0,-1.51582447e-14 L3.63466658,20.4797328 L38.231999,68.639865 C58.2239985,71.3758649 79.643998,78.5278647 100.763997,90.2758644 L100.763997,90.2758644 L107.710664,80.5678647 C86.8319978,68.663865 63.8759984,61.1998651 44.1719989,57.9958652 L0,-1.51582447e-14" id="path-13"></path>
        <radialGradient cx="-7.74544149%" cy="265.328792%" fx="-7.74544149%" fy="265.328792%" r="293.924253%" gradientTransform="translate(-0.077454,2.653288),scale(0.838133,1.000000),translate(0.077454,-2.653288)" id="radialGradient-15">
            <stop stop-color="#1B64B8" offset="0%"></stop>
            <stop stop-color="#254AA5" offset="85.0394%"></stop>
            <stop stop-color="#2745A1" offset="100%"></stop>
        </radialGradient>
        <path d="M48.3482655,0 C29.4842659,4.1999999 13.8602663,13.6319997 3.62453324,28.0079993 C2.29226661,29.8799993 1.09226664,31.8119992 0,33.7919992 L5.38799987,37.1039991 C5.89226652,36.4199991 6.39639984,35.7479991 6.92453316,35.0759991 C17.0642662,22.4159994 32.0042659,14.2799996 49.7882654,10.7999997 L48.3469321,0" id="path-16"></path>
        <radialGradient cx="84.8103435%" cy="487.861147%" fx="84.8103435%" fy="487.861147%" r="715.132241%" gradientTransform="translate(0.848103,4.878611),scale(0.745236,1.000000),translate(-0.848103,-4.878611)" id="radialGradient-18">
            <stop stop-color="#1B64B8" offset="0%"></stop>
            <stop stop-color="#254AA5" offset="85.0394%"></stop>
            <stop stop-color="#2745A1" offset="100%"></stop>
        </radialGradient>
        <path d="M4.27961279,3.03164893e-14 C-3.01572036,18.4159995 -0.791853746,40.2533323 9.485346,61.3626651 C0.504012888,40.839999 -0.227187094,20.1133328 8.71027935,3.25466659 C8.78107935,3.11999992 8.85294601,2.98666659 8.92481268,2.85333326 L4.27961279,3.03164893e-14" id="path-19"></path>
        <radialGradient cx="522.048906%" cy="229.453305%" fx="522.048906%" fy="229.453305%" r="2797.36758%" gradientTransform="translate(5.220489,2.294533),scale(1.000000,0.154578),translate(-5.220489,-2.294533)" id="radialGradient-21">
            <stop stop-color="#1B64B8" offset="0%"></stop>
            <stop stop-color="#254AA5" offset="85.0394%"></stop>
            <stop stop-color="#2745A1" offset="100%"></stop>
        </radialGradient>
    </defs>
    <g id="Page-1" stroke="none" stroke-width="1" fill="none" fill-rule="evenodd">
        <g id="ANWB-_2_" transform="translate(-0.000370, -0.000601)">
            <g id="g10" transform="translate(376.627265, 193.759793) scale(-1, 1) rotate(-180.000000) translate(-376.627265, -193.759793) translate(0.000000, -0.000000)">
                <g id="g12" transform="translate(0.000000, 0.000000)">
                    <g id="g16-Clipped" transform="translate(154.407033, 297.065645)">
                        <mask id="mask-2" fill="white">
                            <use xlink:href="#path-1"></use>
                        </mask>
                        <g id="path18"></g>
                        <g id="g16" mask="url(#mask-2)" fill="url(#linearGradient-3)" fill-rule="nonzero">
                            <path d="M179.390662,8.80666645 C165.590663,19.3266662 147.050663,25.2719994 127.28533,25.6279994 L136.942663,76.7599981 L97.2613309,24.3693327 C74.6653315,21.1799995 50.5533321,12.909333 28.9439993,0 L0,40.4533323 C12.6146664,48.5399988 25.7293327,56.3239986 39.8213323,62.2026651 C128.107997,99.0359975 195.462662,90.0719977 253.85866,54.7306653 L179.390662,8.80666645" id="path28"></path>
                        </g>
                    </g>
                    <g id="g30" transform="translate(35.565268, 124.551116)">
                        <g id="g32-Clipped" transform="translate(0.000000, 0.000000)">
                            <mask id="mask-5" fill="white">
                                <use xlink:href="#path-4"></use>
                            </mask>
                            <g id="path34"></g>
                            <g id="g32" mask="url(#mask-5)" fill="url(#radialGradient-6)" fill-rule="nonzero">
                                <path d="M4.11896744,3.03164893e-14 C-4.64089901,34.8598658 1.04710085,70.1038649 16.6711005,102.935864 L52.9949662,115.679864 L29.8471001,126.527864 C51.3153663,159.935863 82.7548321,189.863862 118.839098,212.963861 L147.783097,172.511862 C120.760431,156.001196 101.528432,134.147863 91.8596319,112.053197 C81.5824322,90.9438644 79.3585656,69.1065316 86.6538987,50.6905321 L4.11896744,3.03164893e-14 M91.2990986,53.5438653 C91.2272319,53.6771987 91.1553653,53.810532 91.0845653,53.9451987 C91.1548319,53.8118653 91.2272319,53.6758653 91.2990986,53.5438653 L91.2990986,53.5438653" id="path46"></path>
                            </g>
                        </g>
                    </g>
                    <g id="g50-Clipped" transform="translate(41.700369, 47.510984)">
                        <mask id="mask-8" fill="white">
                            <use xlink:href="#path-7"></use>
                        </mask>
                        <g id="path52"></g>
                        <g id="g50" mask="url(#mask-8)" fill="url(#radialGradient-9)" fill-rule="nonzero">
                            <path d="M123.947997,7.57912233e-15 L121.355997,23.3999994 L94.6559976,1.12813331 C47.6401321,6.91199983 12.2639997,31.8119992 0,69.9718649 L88.9197311,124.619997 C89.4239978,123.935997 89.9281311,123.263997 90.4562644,122.591997 C100.595997,109.931997 115.535997,101.795997 133.319997,98.3159975 L133.319997,98.3159975 C115.535997,101.795997 100.595997,109.931997 90.4562644,122.591997 C89.9281311,123.263997 89.4239978,123.935997 88.9197311,124.619997 L83.5317312,121.307997 C84.6239979,119.327997 85.8239979,117.395997 87.1562645,115.523997 C97.3919976,101.147997 113.015997,91.7159977 131.879997,87.5159978 L124.307997,30.7921326 L137.734663,49.4838654 L134.099997,29.0041326 L178.271996,87 C197.975995,90.2039977 220.931994,97.6679976 241.811994,109.571997 L277.487993,59.7119985 C224.255994,20.2921328 170.267996,1.84786662 123.947997,7.57912233e-15" id="path64"></path>
                        </g>
                    </g>
                    <g id="g68-Clipped" transform="translate(0.000000, 0.000000)">
                        <mask id="mask-11" fill="white">
                            <use xlink:href="#path-10"></use>
                        </mask>
                        <g id="path70"></g>
                        <g id="g68" mask="url(#mask-11)" fill="url(#radialGradient-12)" fill-rule="nonzero">
                            <path d="M381.121694,138.640316 L374.819027,138.618982 C223.000364,-16.5583473 57.0873019,21.0068518 29.8930359,115.633916 C0.265473966,218.72298 103.937301,333.280311 211.441698,371.90031 C113.557167,352.041644 -38.7428291,214.30698 9.05558308,80.7885836 C41.9973023,-11.2275741 204.303032,-38.0608801 344.529695,71.7963172 L333.963028,86.5640502 C358.169694,106.896316 374.516361,125.976583 381.121694,138.640316" id="path82"></path>
                        </g>
                    </g>
                    <path d="M179.435032,96.9948499 L179.436365,96.9989832 L214.032365,145.154982 L179.435032,96.9948499 M283.51103,157.082982 L276.564363,166.790981 L283.512363,157.082982 L283.512363,157.082982" id="path84" fill="#5D65B9" fill-rule="nonzero"></path>
                    <g id="g88-Clipped" transform="translate(175.800366, 76.515117)">
                        <mask id="mask-14" fill="white">
                            <use xlink:href="#path-13"></use>
                        </mask>
                        <g id="path90"></g>
                        <g id="g88" mask="url(#mask-14)" fill="url(#radialGradient-15)" fill-rule="nonzero">
                            <path d="M0,-1.51582447e-14 L3.63466658,20.4797328 L38.231999,68.639865 C58.2239985,71.3758649 79.643998,78.5278647 100.763997,90.2758644 L100.763997,90.2758644 L107.710664,80.5678647 C86.8319978,68.663865 63.8759984,61.1998651 44.1719989,57.9958652 L0,-1.51582447e-14" id="path102"></path>
                        </g>
                    </g>
                    <g id="g104" transform="translate(125.232100, 135.026982)">
                        <g id="g106-Clipped" transform="translate(0.000000, 0.000000)">
                            <mask id="mask-17" fill="white">
                                <use xlink:href="#path-16"></use>
                            </mask>
                            <g id="path108"></g>
                            <g id="g106" mask="url(#mask-17)" fill="url(#radialGradient-18)" fill-rule="nonzero">
                                <path d="M48.3482655,0 C29.4842659,4.1999999 13.8602663,13.6319997 3.62453324,28.0079993 C2.29226661,29.8799993 1.09226664,31.8119992 0,33.7919992 L5.38799987,37.1039991 C5.89226652,36.4199991 6.39639984,35.7479991 6.92453316,35.0759991 C17.0642662,22.4159994 32.0042659,14.2799996 49.7882654,10.7999997 L48.3469321,0" id="path120"></path>
                            </g>
                        </g>
                    </g>
                    <path d="M122.2201,175.238981 C122.2201,175.240315 122.2197,175.240315 122.219167,175.241648 L126.864367,178.094981 L126.864367,178.094981 L122.2201,175.238981 M126.649833,178.496315 C117.712367,195.354981 118.443567,216.081647 127.4249,236.604313 C127.473833,236.705646 127.522767,236.805646 127.572233,236.90698 C118.463967,216.285647 117.6717,195.440314 126.649833,178.496315" id="path122" fill="#5D65B9" fill-rule="nonzero"></path>
                    <g id="g126-Clipped" transform="translate(117.939554, 175.241648)">
                        <mask id="mask-20" fill="white">
                            <use xlink:href="#path-19"></use>
                        </mask>
                        <g id="path128"></g>
                        <g id="g126" mask="url(#mask-20)" fill="url(#radialGradient-21)" fill-rule="nonzero">
                            <path d="M4.27961279,3.03164893e-14 C-3.01572036,18.4159995 -0.791853746,40.2533323 9.485346,61.3626651 C0.504012888,40.839999 -0.227187094,20.1133328 8.71027935,3.25466659 C8.78107935,3.11999992 8.85294601,2.98666659 8.92481268,2.85333326 L4.27961279,3.03164893e-14" id="path140"></path>
                        </g>
                    </g>
                    <path d="M708.345686,217.157647 C701.157686,206.816314 691.229686,199.110981 680.66302,198.928314 C671.329687,198.762981 662.55502,204.134981 667.96302,221.157647 C673.55502,238.840313 685.089686,265.876312 685.089686,265.876312 C712.345685,276.877645 721.196352,262.814979 720.884352,251.894979 C720.687019,244.97098 717.284352,230.016313 708.345686,217.157647 Z M752.060351,264.681646 C747.068351,283.510979 732.229685,291.125645 711.341686,290.438978 C706.121686,290.268312 700.023019,289.444312 693.739019,288.270978 L712.177686,336.432311 L676.529686,336.432311 L616.757688,180.654981 L616.301688,179.528315 L616.324355,179.528315 L616.301688,179.474981 L616.343021,179.528315 L641.256354,179.548315 L651.545687,187.064314 C651.545687,187.064314 657.229687,179.881648 669.376353,178.174981 C700.324352,173.820315 726.379018,192.452314 740.248351,213.94298 C750.036351,229.088313 755.913684,250.158979 752.060351,264.681646" id="path142" fill="#1C428D" fill-rule="nonzero"></path>
                    <path d="M259.680363,269.438979 C259.680363,269.438979 248.37103,238.885646 240.053697,221.216313 C232.036364,204.184314 220.975031,198.372314 212.124365,198.977647 C202.471032,199.646981 196.732365,206.377647 196.944365,217.208314 C197.205698,230.629647 205.511032,245.093646 211.459031,251.949646 C216.881698,258.205646 232.556364,273.260312 259.680363,269.438979 Z M248.261697,290.484312 C224.560364,288.156312 206.123031,281.389645 187.411032,264.282979 C172.973699,251.090979 163.543033,230.41098 163.120366,213.992314 C162.573699,192.700314 178.563032,173.749648 210.244365,178.666981 C218.820365,179.993648 229.612364,187.110981 229.612364,187.110981 L234.564364,179.596315 L259.489697,179.572315 L298.817696,282.134979 C291.209696,285.960312 272.39103,292.857645 248.261697,290.484312" id="path144" fill="#1C428D" fill-rule="nonzero"></path>
                    <path d="M427.605693,193.933647 L463.439025,287.569645 L498.776358,287.569645 L465.155025,199.736314 C475.189691,194.510981 494.007024,197.444314 502.103024,215.61898 L529.55769,287.569645 L565.084356,287.569645 L531.235023,199.573647 C545.248356,194.966981 560.340356,197.444314 568.036356,215.61098 L595.627022,287.569645 L630.871021,287.569645 L602.756355,214.856314 C595.704355,198.582981 584.232355,176.280315 544.88969,176.280315 C531.712357,176.280315 519.76169,180.933648 512.115024,187.033648 C503.477691,181.745648 485.423025,176.280315 471.823025,176.280315 C458.223025,176.280315 433.516359,181.129648 427.605693,193.933647" id="path146" fill="#1C428D" fill-rule="nonzero"></path>
                    <path d="M326.120362,282.585645 L286.561696,179.460315 L322.733695,179.460315 L356.153694,266.037646 C360.835028,267.221646 368.037694,268.200312 373.999027,268.200312 C385.69636,268.200312 390.72836,263.692312 389.937694,257.797646 C389.763027,256.432313 389.331027,255.058979 388.647027,253.478979 L360.219028,179.460315 L396.42836,179.460315 L424.397693,252.110979 C425.515026,255.058979 426.363026,257.797646 426.717693,260.549646 C428.805693,276.444312 417.335026,290.009645 382.707027,290.04843 C371.803027,290.058978 362.113694,289.345645 355.899028,288.601645 C350.229695,287.932312 340.011028,286.476312 326.120362,282.585645" id="path148" fill="#1C428D" fill-rule="nonzero"></path>
                    <path d="M287.323029,352.25231 L281.69103,322.705644 C284.57103,322.673644 287.296363,322.481644 290.141696,322.210978 L298.445696,371.758976 L287.323029,352.25231" id="path150" fill="#E96216" fill-rule="nonzero"></path>
                    <path d="M408.427026,351.790977 C362.876361,391.198976 287.436363,398.184309 211.389698,371.866976 L211.471031,371.88431 C103.965967,333.264311 0.294120632,218.70698 29.9222359,115.617783 C57.1170352,20.9911185 223.028364,-16.5744806 374.847027,138.601649 L358.461694,138.601649 C358.461694,138.601649 339.403028,120.189649 319.156362,107.28445 L319.212362,107.20685 C265.98703,67.788584 211.993698,49.3416511 165.676366,47.4911178 L163.083033,70.8885839 L136.388367,48.6229844 C89.3659677,54.4041843 53.9951686,79.3005837 41.7263689,117.470849 L130.625833,172.129648 C128.744633,174.653648 127.633167,176.734981 126.867033,178.093648 L39.7186356,124.533916 C30.9582359,159.398982 36.6367691,194.642981 52.2654353,227.47098 L88.5910344,240.217646 L65.439435,251.058979 C86.9066345,284.474979 118.3493,314.402978 154.436366,337.502977 C167.052366,345.590977 180.167032,353.373643 194.257698,359.25231 C197.017698,360.40431 199.755032,361.509643 202.473698,362.57231 C286.745696,395.498976 351.724361,386.017643 408.293693,351.78031 L408.427026,351.790977" id="path152" fill="#FFFFFF" fill-rule="nonzero"></path>
                    <path d="M290.075029,367.41631 L291.349696,373.825643 L251.661697,321.438978 C254.80703,321.854978 257.392364,322.172311 260.536363,322.401644 L290.075029,367.41631" id="path154" fill="#FFFFFF" fill-rule="nonzero"></path>
                    <path d="M182.588365,144.622982 C179.051032,145.100315 178.255032,145.233649 175.009699,145.829649 L166.000366,78.3041837 L169.749699,83.5255169 L182.588365,144.622982" id="path156" fill="#FFFFFF" fill-rule="nonzero"></path>
                </g>
            </g>
        </g>
    </g>
</svg>