<svg fill="none" xmlns="http://www.w3.org/2000/svg" viewBox="0 0 100 25"><path d="M26.438 8.73h10.1v1.85h-3.971v10.403h-2.184V10.58h-3.954l.009-1.85Zm9.67 3.381h1.866v1.712h.036c.061-.242.176-.475.343-.7a3.256 3.256 0 0 1 1.4-1.08c.29-.113.59-.174.89-.174.229 0 .396.009.484.018.088.008.176.025.273.034v1.885a6.445 6.445 0 0 0-.431-.06 3.723 3.723 0 0 0-.432-.026c-.335 0-.652.069-.951.198-.3.13-.555.329-.775.58-.22.26-.396.57-.528.95-.133.381-.194.814-.194 1.307v4.22h-1.99l.008-8.864Zm14.442 8.872h-1.955v-1.237h-.035a2.69 2.69 0 0 1-1.092 1.073c-.484.268-.978.406-1.48.406-1.188 0-2.051-.285-2.58-.865-.528-.58-.793-1.452-.793-2.62v-5.629h1.99v5.44c0 .777.15 1.33.459 1.65.3.32.73.485 1.277.485.422 0 .766-.06 1.048-.19.281-.13.51-.294.678-.51.176-.208.3-.468.379-.762a3.68 3.68 0 0 0 .114-.96V12.12h1.99v8.863Zm3.39-2.845c.063.57.283.968.661 1.202.388.225.846.346 1.383.346.185 0 .396-.017.634-.043.238-.026.467-.087.67-.165.21-.078.378-.199.52-.354.131-.156.193-.355.184-.605a.828.828 0 0 0-.282-.614 1.99 1.99 0 0 0-.67-.39 6.82 6.82 0 0 0-.933-.25c-.352-.07-.704-.147-1.065-.225-.37-.078-.731-.182-1.075-.294a3.301 3.301 0 0 1-.924-.467 2.063 2.063 0 0 1-.652-.744c-.167-.302-.247-.674-.247-1.124 0-.484.124-.882.361-1.21.238-.329.546-.588.907-.787.37-.199.776-.337 1.225-.424.449-.078.88-.12 1.285-.12.467 0 .916.051 1.34.146.422.095.81.251 1.153.476.343.216.625.501.854.847.229.346.37.77.431 1.263h-2.078c-.097-.467-.308-.787-.651-.943-.344-.164-.74-.242-1.18-.242-.142 0-.309.009-.503.034-.193.026-.37.07-.546.13-.167.06-.308.156-.431.277a.662.662 0 0 0-.176.476c0 .242.088.432.255.579.167.147.388.268.66.372.274.095.582.181.934.25.352.07.713.147 1.083.225.361.078.714.182 1.066.294.352.113.66.268.933.467s.494.441.661.735c.167.294.255.666.255 1.098 0 .528-.123.969-.37 1.34a2.905 2.905 0 0 1-.95.891 4.52 4.52 0 0 1-1.304.502 6.66 6.66 0 0 1-1.418.155c-.572 0-1.1-.06-1.585-.19a3.894 3.894 0 0 1-1.26-.57 2.843 2.843 0 0 1-.836-.96c-.203-.38-.308-.84-.326-1.367h2.008v-.017Zm6.57-6.027h1.507V9.448h1.99v2.663h1.797v1.462h-1.797v4.738c0 .207.009.38.026.536a.973.973 0 0 0 .124.38.563.563 0 0 0 .29.234c.132.052.3.078.529.078.14 0 .282 0 .422-.009.141-.009.282-.026.423-.06v1.513c-.22.026-.44.043-.643.069a5.25 5.25 0 0 1-.643.035c-.528 0-.95-.052-1.268-.147-.317-.096-.572-.242-.748-.433-.185-.19-.3-.424-.37-.709a5.241 5.241 0 0 1-.115-.977V13.59h-1.506V12.11h-.017Zm6.703 0h1.884v1.202h.035c.282-.519.67-.882 1.172-1.107a3.92 3.92 0 0 1 1.63-.337c.712 0 1.329.121 1.857.372.529.242.969.58 1.321 1.012.353.432.608.934.784 1.504.176.57.264 1.185.264 1.833a6.26 6.26 0 0 1-.237 1.73 4.591 4.591 0 0 1-.714 1.487c-.317.432-.722.77-1.215 1.029-.493.26-1.066.389-1.735.389a4.95 4.95 0 0 1-.872-.078 3.893 3.893 0 0 1-.837-.25 3.03 3.03 0 0 1-.74-.442 2.756 2.756 0 0 1-.572-.622h-.035v4.427h-1.99V12.11Zm6.957 4.445c0-.398-.053-.787-.159-1.168a3.122 3.122 0 0 0-.475-1.003 2.406 2.406 0 0 0-.784-.7 2.23 2.23 0 0 0-1.083-.268c-.837 0-1.47.285-1.894.856-.422.57-.634 1.332-.634 2.283 0 .45.053.864.168 1.245.114.38.273.709.502.986.22.276.484.492.792.648.309.164.67.242 1.075.242.458 0 .836-.095 1.153-.276a2.42 2.42 0 0 0 .775-.71 2.92 2.92 0 0 0 .44-.994c.08-.372.124-.752.124-1.141Zm3.514-7.826h1.99v1.85h-1.99V8.73Zm0 3.381h1.99v8.872h-1.99V12.11Zm3.77-3.38h1.99v12.252h-1.99V8.73Zm8.093 12.494c-.723 0-1.365-.121-1.93-.355a4.261 4.261 0 0 1-1.435-.968 4.202 4.202 0 0 1-.89-1.479 5.612 5.612 0 0 1-.307-1.885c0-.674.105-1.297.308-1.867.203-.571.502-1.064.89-1.479a4.06 4.06 0 0 1 1.435-.968c.564-.234 1.206-.355 1.929-.355.722 0 1.365.121 1.928.355.564.233 1.04.562 1.436.968.387.415.687.908.89 1.479.202.57.307 1.193.307 1.867 0 .683-.105 1.315-.308 1.885a4.202 4.202 0 0 1-.89 1.479 4.06 4.06 0 0 1-1.435.968c-.563.234-1.206.355-1.928.355Zm0-1.548c.44 0 .827-.095 1.153-.276.326-.182.59-.424.802-.718.211-.294.36-.631.466-1.003a4.51 4.51 0 0 0 .15-1.142c0-.38-.053-.752-.15-1.132a2.933 2.933 0 0 0-.466-1.003 2.412 2.412 0 0 0-.802-.71 2.341 2.341 0 0 0-1.153-.276c-.44 0-.828.095-1.154.277-.326.181-.59.423-.802.709a3.108 3.108 0 0 0-.466 1.003c-.097.38-.15.752-.15 1.132 0 .39.053.77.15 1.142.097.372.255.709.466 1.003.212.294.476.536.802.718.326.19.713.276 1.154.276Zm5.143-7.566h1.506V9.448h1.99v2.663h1.796v1.462h-1.796v4.738c0 .207.009.38.026.536a.972.972 0 0 0 .124.38.562.562 0 0 0 .29.234c.132.052.3.078.529.078.14 0 .281 0 .422-.009.141-.009.282-.026.423-.06v1.513c-.22.026-.44.043-.643.069a5.252 5.252 0 0 1-.643.035c-.528 0-.95-.052-1.268-.147-.317-.096-.572-.242-.748-.433-.185-.19-.3-.424-.37-.709a5.241 5.241 0 0 1-.115-.977V13.59h-1.506V12.11h-.017Z" fill="#1D1D1B"/><path d="M23.571 8.892h-9L11.79.26 9 8.892 0 8.884l7.29 5.34-2.79 8.624 7.29-5.332 7.28 5.332-2.78-8.624 7.281-5.332Z" fill="#00B67A"/><path d="m17.143 15.765-.61-2.094-4.39 3.53 5-1.436Z" fill="#005128"/></svg>